<svg width="0" height="0" class="hidden" >

  <symbol fill="inherit" xmlns="http://www.w3.org/2000/svg" viewBox="0 0 15 10" id="arrow-down">
    <path d="M12.5 3L7.50003 8L2.5 3" stroke="white" stroke-width="3" stroke-miterlimit="10" stroke-linecap="square" stroke-linejoin="round"></path>
  </symbol>

  <symbol fill="none" xmlns="http://www.w3.org/2000/svg" viewBox="0 0 24 24" id="arrow-greater">
    <path d="M9 5.5L16 12L9 18.5" stroke="#21E786" stroke-width="4" stroke-miterlimit="10" stroke-linecap="square" stroke-linejoin="round"></path>
  </symbol>

  <symbol fill="none" xmlns="http://www.w3.org/2000/svg" viewBox="0 0 24 24" id="arrow-less">
    <path d="M15 18.5L8 12L15 5.5" stroke="inherit" stroke-width="inherit" stroke-miterlimit="10" stroke-linecap="square" stroke-linejoin="round"></path>
  </symbol>

  <symbol fill="none" xmlns="http://www.w3.org/2000/svg" viewBox="0 0 20 20" id="bag-icon">
    <path fill-rule="evenodd" clip-rule="evenodd" d="M14.6509 4.47H14.8665C17.7002 4.47 20 6.72 20 9.48V15C20 17.76 17.7002 20 14.8665 20H5.13347C2.29979 20 0 17.76 0 15V9.48C0 6.72 2.29979 4.47 5.13347 4.47H5.34908C5.36961 3.27 5.85216 2.15 6.72485 1.31C7.6078 0.46 8.73717 0.03 10.0103 0C12.5565 0 14.6201 2 14.6509 4.47ZM7.80289 2.38C7.22794 2.94 6.90967 3.68 6.88913 4.47H13.1109C13.0801 2.83 11.7043 1.5 10.0103 1.5C9.21973 1.5 8.39837 1.81 7.80289 2.38ZM13.9014 8.32C14.3326 8.32 14.6714 7.98 14.6714 7.57V6.41C14.6714 6 14.3326 5.66 13.9014 5.66C13.4805 5.66 13.1314 6 13.1314 6.41V7.57C13.1314 7.98 13.4805 8.32 13.9014 8.32ZM6.77615 7.57C6.77615 7.98 6.43735 8.32 6.00613 8.32C5.58519 8.32 5.23611 7.98 5.23611 7.57V6.41C5.23611 6 5.58519 5.66 6.00613 5.66C6.43735 5.66 6.77615 6 6.77615 6.41V7.57Z" fill="#141B22"></path>
  </symbol>

  <!-- read more arrow -->

  <symbol fill="none" xmlns="http://www.w3.org/2000/svg" viewBox="0 0 19 12" id="readmore-arr">
    <path d="M18.725 5.33639L18.7242 5.3355L13.8256 0.460497C13.4586 0.0952938 12.865 0.0966529 12.4997 0.463684C12.1345 0.830668 12.1359 1.42425 12.5028 1.7895L15.7918 5.0625H0.9375C0.419719 5.0625 0 5.48222 0 6C0 6.51778 0.419719 6.9375 0.9375 6.9375H15.7917L12.5029 10.2105C12.1359 10.5757 12.1345 11.1693 12.4998 11.5363C12.865 11.9034 13.4587 11.9047 13.8256 11.5395L18.7242 6.6645L18.7251 6.66361C19.0923 6.29714 19.0911 5.70164 18.725 5.33639Z" fill="white"></path>
  </symbol>

  <!-- Star rating -->

  
  <symbol fill="none" xmlns="http://www.w3.org/2000/svg" viewBox="0 0 20 18" id="star">
    <path d="M18.5105 6.58653L13.0556 5.79376L10.6171 0.850203C10.5505 0.714852 10.4409 0.605281 10.3056 0.53868C9.96614 0.371102 9.55364 0.51075 9.38391 0.850203L6.94544 5.79376L1.49055 6.58653C1.34016 6.60802 1.20266 6.67891 1.09739 6.78634C0.970119 6.91715 0.899987 7.09313 0.902404 7.27563C0.904821 7.45812 0.979589 7.63218 1.11028 7.75958L5.05696 11.6074L4.12454 17.0408C4.10267 17.1672 4.11666 17.2972 4.16491 17.4161C4.21316 17.5349 4.29375 17.6379 4.39754 17.7132C4.50132 17.7886 4.62415 17.8334 4.75209 17.8425C4.88004 17.8517 5.00798 17.8247 5.12141 17.7649L10.0005 15.1996L14.8796 17.7649C15.0128 17.8358 15.1675 17.8594 15.3158 17.8336C15.6896 17.7691 15.9409 17.4147 15.8765 17.0408L14.9441 11.6074L18.8907 7.75958C18.9982 7.65431 19.0691 7.5168 19.0906 7.36641C19.1486 6.99044 18.8865 6.64239 18.5105 6.58653Z" fill="#E8D41F"></path>
  </symbol>



  <symbol fill="inherit" xmlns="http://www.w3.org/2000/svg" viewBox="0 0 24 24" id="calendar">
    <path d="M2 9C2 7.11438 2 6.17157 2.58579 5.58579C3.17157 5 4.11438 5 6 5H18C19.8856 5 20.8284 5 21.4142 5.58579C22 6.17157 22 7.11438 22 9C22 9.4714 22 9.70711 21.8536 9.85355C21.7071 10 21.4714 10 21 10H3C2.5286 10 2.29289 10 2.14645 9.85355C2 9.70711 2 9.4714 2 9Z" fill="inherit"></path>
    <path fill-rule="evenodd" clip-rule="evenodd" d="M2.58579 21.4142C2 20.8284 2 19.8856 2 18V13C2 12.5286 2 12.2929 2.14645 12.1464C2.29289 12 2.5286 12 3 12H21C21.4714 12 21.7071 12 21.8536 12.1464C22 12.2929 22 12.5286 22 13V18C22 19.8856 22 20.8284 21.4142 21.4142C20.8284 22 19.8856 22 18 22H6C4.11438 22 3.17157 22 2.58579 21.4142ZM8 16C7.44772 16 7 16.4477 7 17C7 17.5523 7.44772 18 8 18H16C16.5523 18 17 17.5523 17 17C17 16.4477 16.5523 16 16 16H8Z" fill="inherit"></path>
    <path d="M7 3L7 6" stroke="inherit" stroke-width="2" stroke-linecap="round"></path>
    <path d="M17 3L17 6" stroke="inherit" stroke-width="2" stroke-linecap="round"></path>
  </symbol>

  <symbol fill="none" xmlns="http://www.w3.org/2000/svg" viewBox="0 0 24 24" id="discord-btn">
    <path d="M20.317 4.15557C18.7873 3.45369 17.147 2.93658 15.4319 2.6404C15.4007 2.63469 15.3695 2.64897 15.3534 2.67754C15.1424 3.05276 14.9087 3.54225 14.7451 3.927C12.9004 3.65083 11.0652 3.65083 9.25832 3.927C9.09465 3.5337 8.85248 3.05276 8.64057 2.67754C8.62449 2.64992 8.59328 2.63564 8.56205 2.6404C6.84791 2.93563 5.20756 3.45275 3.67693 4.15557C3.66368 4.16129 3.65233 4.17082 3.64479 4.18319C0.533392 8.83155 -0.31895 13.3657 0.0991801 17.8436C0.101072 17.8655 0.11337 17.8864 0.130398 17.8997C2.18321 19.4073 4.17171 20.3225 6.12328 20.9291C6.15451 20.9386 6.18761 20.9272 6.20748 20.9015C6.66913 20.2711 7.08064 19.6063 7.43348 18.9073C7.4543 18.8664 7.43442 18.8178 7.39186 18.8016C6.73913 18.554 6.1176 18.2521 5.51973 17.9093C5.47244 17.8816 5.46865 17.814 5.51216 17.7816C5.63797 17.6873 5.76382 17.5893 5.88396 17.4902C5.90569 17.4721 5.93598 17.4683 5.96153 17.4797C9.88928 19.273 14.1415 19.273 18.023 17.4797C18.0485 17.4674 18.0788 17.4712 18.1015 17.4893C18.2216 17.5883 18.3475 17.6873 18.4742 17.7816C18.5177 17.814 18.5149 17.8816 18.4676 17.9093C17.8697 18.2588 17.2482 18.554 16.5945 18.8006C16.552 18.8168 16.533 18.8664 16.5538 18.9073C16.9143 19.6054 17.3258 20.2701 17.7789 20.9005C17.7978 20.9272 17.8319 20.9386 17.8631 20.9291C19.8241 20.3225 21.8126 19.4073 23.8654 17.8997C23.8834 17.8864 23.8948 17.8664 23.8967 17.8445C24.3971 12.6676 23.0585 8.17064 20.3482 4.18414C20.3416 4.17082 20.3303 4.16129 20.317 4.15557ZM8.02002 15.117C6.8375 15.117 5.86313 14.0313 5.86313 12.6981C5.86313 11.3648 6.8186 10.2791 8.02002 10.2791C9.23087 10.2791 10.1958 11.3743 10.1769 12.6981C10.1769 14.0313 9.22141 15.117 8.02002 15.117ZM15.9947 15.117C14.8123 15.117 13.8379 14.0313 13.8379 12.6981C13.8379 11.3648 14.7933 10.2791 15.9947 10.2791C17.2056 10.2791 18.1705 11.3743 18.1516 12.6981C18.1516 14.0313 17.2056 15.117 15.9947 15.117Z" fill="white"></path>
  </symbol>

  <symbol fill="inherit" xmlns="http://www.w3.org/2000/svg" viewBox="0 0 30 30" id="elipse-default">
    <circle  opacity="0.1" cx="15" cy="15" r="15" fill="inherit"></circle>
    <circle  cx="15" cy="15" r="7.5" fill="inherit"></circle>
  </symbol>

<!-- Email icon -->
  <symbol fill="inherit" xmlns="http://www.w3.org/2000/svg" viewBox="0 0 56 56" id="email">
    <path d="M0.109375 24.5366V53.5568L18.7651 39.0467L0.109375 24.5366Z" fill="inherit"></path>
    <path d="M48.7812 16.9871V25.9094L54.2908 21.6242L48.7812 16.9871Z" fill="inherit"></path>
    <path d="M29.057 0.385301C28.4465 -0.128434 27.5547 -0.128434 26.9441 0.385301L22.5938 4.04685H33.4073L29.057 0.385301Z" fill="inherit"></path>
    <path d="M7.21878 16.9871L1.70923 21.6242L7.21878 25.9094V16.9871Z" fill="inherit"></path>
    <path d="M22 40.6875L2.3125 56H53.6868L33.9993 40.6875H22Z" fill="inherit"></path>
    <path d="M37.2344 39.0469L55.8902 53.557V24.5366L37.2344 39.0469Z" fill="inherit"></path>
    <path d="M27.5862 19.6177C26.2554 19.6177 24.8789 20.9116 24.8789 23.0768C24.8789 25.2781 26.2216 26.7568 27.4757 26.7568C28.7963 26.7568 29.8792 25.2117 29.9571 23.2689L29.9592 22.8565C29.9002 20.9398 28.9411 19.6177 27.5862 19.6177Z" fill="inherit"></path>
    <path d="M33.9997 37.4062L45.5 28.4615V8.96875C45.5 8.06269 44.7654 7.32812 43.8594 7.32812H12.1406C11.2346 7.32812 10.5 8.06269 10.5 8.96875V28.4616L22.0003 37.4062H33.9997ZM16.4345 26.2399C15.651 23.2611 16.045 20.1207 17.544 17.3974C19.0423 14.6751 21.484 12.6613 24.4193 11.7269C27.516 10.7408 30.8042 11.0313 33.6775 12.5448C36.5514 14.0583 38.6509 16.6041 39.5893 19.7133C39.5944 19.7302 39.5992 19.7472 39.6037 19.7643C40.2274 22.1005 40.0427 24.306 39.005 26.9151C38.3036 28.6787 36.5839 30.5632 33.861 30.5632C32.8731 30.5632 31.9258 30.1581 31.1936 29.4223C31.0204 29.2482 30.8643 29.0585 30.7245 28.8576C29.805 29.6055 28.6899 30.0382 27.4761 30.0382C25.8904 30.0382 24.3486 29.2684 23.2462 27.9262C22.1833 26.632 21.5981 24.9099 21.5981 23.0769C21.5981 21.2357 22.2208 19.532 23.3518 18.2797C24.467 17.0449 26.0106 16.3366 27.5866 16.3366C28.4534 16.3366 29.2771 16.5432 30.0172 16.9325C30.1607 16.172 30.8273 15.5974 31.6279 15.5974H31.6362C32.5422 15.6019 33.2732 16.3401 33.2687 17.2461L33.2235 26.3609C33.2221 26.6408 33.3328 26.9199 33.5196 27.1076C33.5842 27.1727 33.7146 27.2817 33.861 27.2817C35.1848 27.2817 35.7672 26.1772 35.9559 25.7024C36.7223 23.7755 36.8676 22.2584 36.4401 20.6357C35.754 18.3863 34.2308 16.5445 32.1486 15.4479C30.0591 14.3474 27.6673 14.1364 25.4146 14.8533C20.9741 16.2669 18.4235 20.9018 19.6079 25.4052C20.5914 29.1449 23.9718 31.8313 27.8285 31.938C28.7341 31.9631 29.4482 32.7177 29.4231 33.6234C29.3985 34.5137 28.6689 35.2186 27.784 35.2186C27.7686 35.2186 27.7533 35.2184 27.7377 35.218C25.1953 35.1477 22.6856 34.2445 20.6708 32.6748C18.5776 31.0442 17.1128 28.8191 16.4345 26.2399Z" fill="inherit"></path>
  </symbol>

  <symbol fill="none" xmlns="http://www.w3.org/2000/svg" viewBox="0 0 28 20" id="footer-discord">
    <path d="M23.638 2.18582C21.3305 0.328938 17.6801 0.0141738 17.5239 0.00285089C17.2816 -0.0175294 17.0506 0.11834 16.951 0.342525C16.9419 0.356112 16.8626 0.539536 16.7743 0.824862C18.3006 1.08301 20.1756 1.60158 21.8717 2.65457C22.1434 2.82214 22.2272 3.17993 22.0597 3.45167C21.9487 3.63057 21.7607 3.72794 21.566 3.72794C21.4618 3.72794 21.3554 3.6985 21.2603 3.63963C18.3436 1.8303 14.7023 1.73972 14.0003 1.73972C13.2983 1.73972 9.65476 1.8303 6.74036 3.63963C6.46862 3.80946 6.11083 3.72568 5.94326 3.45394C5.77342 3.17993 5.85721 2.82441 6.12895 2.65457C7.82505 1.60385 9.70005 1.08301 11.2263 0.827127C11.138 0.539536 11.0588 0.358377 11.052 0.342525C10.9501 0.11834 10.7213 -0.0220581 10.4768 0.00285089C10.3205 0.0141738 6.67016 0.328938 4.33094 2.21073C3.11038 3.34071 0.666992 9.94398 0.666992 15.6528C0.666992 15.7547 0.694166 15.852 0.743985 15.9404C2.42877 18.9023 7.02795 19.6768 8.07641 19.7107C8.08094 19.7107 8.08774 19.7107 8.09453 19.7107C8.28022 19.7107 8.45458 19.6224 8.56328 19.473L9.62306 18.0146C6.76301 17.2764 5.30241 16.0219 5.21862 15.9471C4.97859 15.7365 4.95594 15.3697 5.1688 15.1297C5.3794 14.8896 5.74625 14.867 5.98629 15.0776C6.02025 15.1093 8.71047 17.3919 14.0003 17.3919C19.2992 17.3919 21.9895 15.1002 22.0166 15.0776C22.2567 14.8692 22.6213 14.8896 22.8341 15.1319C23.0447 15.372 23.0221 15.7365 22.782 15.9471C22.6982 16.0219 21.2376 17.2764 18.3776 18.0146L19.4374 19.473C19.5461 19.6224 19.7204 19.7107 19.9061 19.7107C19.9129 19.7107 19.9197 19.7107 19.9242 19.7107C20.9727 19.6768 25.5719 18.9023 27.2567 15.9404C27.3065 15.852 27.3337 15.7547 27.3337 15.6528C27.3337 9.94398 24.8903 3.34071 23.638 2.18582ZM10.2322 13.3339C9.11129 13.3339 8.20322 12.2968 8.20322 11.0151C8.20322 9.73338 9.11129 8.69624 10.2322 8.69624C11.3531 8.69624 12.2612 9.73338 12.2612 11.0151C12.2612 12.2968 11.3531 13.3339 10.2322 13.3339ZM17.7684 13.3339C16.6475 13.3339 15.7395 12.2968 15.7395 11.0151C15.7395 9.73338 16.6475 8.69624 17.7684 8.69624C18.8894 8.69624 19.7974 9.73338 19.7974 11.0151C19.7974 12.2968 18.8894 13.3339 17.7684 13.3339Z" fill="white"></path>
  </symbol>

  <symbol fill="none" xmlns="http://www.w3.org/2000/svg" viewBox="0 0 24 24" id="footer-facebook">
    <path d="M0.890625 12.0676C0.891918 17.5673 4.86663 22.25 10.2651 23.1119V15.2985H7.44618V12.0676H10.2684V9.60813C10.1422 8.44271 10.5379 7.28122 11.348 6.43867C12.1581 5.59611 13.2988 5.15982 14.4606 5.24812C15.2946 5.26167 16.1264 5.3364 16.9495 5.47171V8.22076H15.5451C15.0616 8.15704 14.5755 8.31771 14.2237 8.6575C13.8719 8.9973 13.6926 9.47944 13.7362 9.96811V12.0676H16.8151L16.3228 15.2996H13.7362V23.1119C19.5745 22.1835 23.6685 16.8187 23.0523 10.9039C22.4361 4.98917 17.3254 0.59513 11.4227 0.905081C5.51992 1.21503 0.891563 6.12047 0.890625 12.0676Z" fill="white"></path>
  </symbol>

  <symbol fill="none" xmlns="http://www.w3.org/2000/svg" viewBox="0 0 28 25" id="footer-telegram">
    <path d="M26.8301 0.662938C26.3752 0.281337 25.6608 0.226736 24.922 0.520137H24.9208C24.1439 0.828538 2.92852 9.83096 2.06486 10.1988C1.90778 10.2528 0.535872 10.7592 0.677187 11.8872C0.803339 12.9042 1.90596 13.3254 2.0406 13.374L7.43421 15.201C7.79204 16.3794 9.11118 20.727 9.40291 21.6558C9.58486 22.2348 9.88144 22.9956 10.4012 23.1522C10.8573 23.3262 11.311 23.1672 11.6045 22.9392L14.9021 19.9134L20.2253 24.0204L20.3521 24.0954C20.7135 24.2538 21.0599 24.333 21.3904 24.333C21.6457 24.333 21.8908 24.2856 22.1249 24.1908C22.9224 23.8668 23.2414 23.115 23.2748 23.0298L27.251 2.58354C27.4936 1.49154 27.1564 0.935938 26.8301 0.662938ZM12.191 15.9318L10.3715 20.7318L8.55199 14.7318L22.5015 4.53175L12.191 15.9318Z" fill="white"></path>
  </symbol>

  <symbol fill="none" xmlns="http://www.w3.org/2000/svg" viewBox="0 0 28 28" id="footer-tiktok">
    <path d="M24.1591 0.666992H3.8416C2.09112 0.666992 0.666992 2.09112 0.666992 3.8416V24.1591C0.666992 25.9095 2.09112 27.3337 3.8416 27.3337H24.1591C25.9095 27.3337 27.3337 25.9095 27.3337 24.1591V3.8416C27.3337 2.09112 25.9095 0.666992 24.1591 0.666992ZM21.6232 12.3006C21.4791 12.314 21.333 12.3229 21.1851 12.3229C19.5197 12.3229 18.0562 11.4664 17.2048 10.1718C17.2048 13.5679 17.2048 17.4321 17.2048 17.4968C17.2048 20.4867 14.7806 22.9108 11.7908 22.9108C8.80096 22.9108 6.37683 20.4867 6.37683 17.4968C6.37683 14.507 8.80096 12.0829 11.7908 12.0829C11.9038 12.0829 12.0143 12.093 12.1254 12.1V14.7679C12.0143 14.7546 11.9051 14.7343 11.7908 14.7343C10.2645 14.7343 9.02763 15.9711 9.02763 17.4975C9.02763 19.0238 10.2645 20.2606 11.7908 20.2606C13.3172 20.2606 14.6651 19.0581 14.6651 17.5318C14.6651 17.4714 14.6918 5.09112 14.6918 5.09112H17.2416C17.4816 7.37112 19.3222 9.17048 21.6232 9.33556V12.3006Z" fill="white"></path>
  </symbol>

  <symbol fill="none" xmlns="http://www.w3.org/2000/svg" viewBox="0 0 24 20" id="footer-twitter">
    <path d="M20.4942 3.53429C21.4466 2.93853 22.1591 2.00045 22.4989 0.895189C21.604 1.4508 20.625 1.84219 19.604 2.05244C18.1885 0.48557 15.9458 0.104266 14.1291 1.12159C12.3123 2.13891 11.3713 4.303 11.8318 6.40461C8.16633 6.21204 4.75125 4.40018 2.43643 1.4199C1.22837 3.60034 1.84571 6.3877 3.84723 7.78975C3.12346 7.7654 2.41574 7.56035 1.78308 7.19168C1.78308 7.21169 1.78308 7.2317 1.78308 7.25171C1.7835 9.52301 3.31326 11.4795 5.44075 11.9296C4.76942 12.1207 4.06523 12.1489 3.38192 12.0119C3.98024 13.9543 5.69099 15.2849 7.64088 15.3246C6.02593 16.651 4.03152 17.3703 1.97856 17.3668C1.61467 17.3673 1.25107 17.3454 0.889648 17.3012C2.97439 18.703 5.40078 19.4471 7.87885 19.4445C11.3264 19.4693 14.6397 18.047 17.0774 15.4959C19.5152 12.9447 20.8741 9.47754 20.8501 5.8699C20.8501 5.66313 20.8455 5.45747 20.8363 5.25293C21.7292 4.5777 22.4998 3.74122 23.1119 2.7828C22.2801 3.16862 21.3977 3.42192 20.4942 3.53429Z" fill="white"></path>
  </symbol>

  <symbol fill="none" xmlns="http://www.w3.org/2000/svg" viewBox="0 0 28 20" id="footer-youtube">
    <path d="M26.5893 3.39506C26.3428 2.03752 25.1682 1.0489 23.8052 0.740258C21.7654 0.308642 17.9904 0 13.9061 0C9.82414 0 5.98873 0.308642 3.94655 0.740258C2.58591 1.0489 1.40894 1.97483 1.16243 3.39506C0.913503 4.93827 0.666992 7.09877 0.666992 9.87654C0.666992 12.6543 0.913503 14.8148 1.22285 16.358C1.47178 17.7156 2.64633 18.7042 4.00697 19.0128C6.1724 19.4444 9.88456 19.7531 13.9689 19.7531C18.0533 19.7531 21.7654 19.4444 23.9308 19.0128C25.2915 18.7042 26.466 17.7783 26.715 16.358C26.9615 14.8148 27.2708 12.5916 27.3337 9.87654C27.208 7.09877 26.8986 4.93827 26.5893 3.39506ZM10.5661 14.1975V5.55556L18.1137 9.87654L10.5661 14.1975Z" fill="white"></path>
  </symbol>

  <symbol fill="none" xmlns="http://www.w3.org/2000/svg" viewBox="0 0 20 20" id="icon-search">
    <mask id="mask0_1_8344" maskUnits="userSpaceOnUse" x="1" y="1" width="18" height="17">
      <path fill-rule="evenodd" clip-rule="evenodd" d="M1.6665 1.66675H17.6857V17.3323H1.6665V1.66675Z" fill="white" stroke="white"></path>
    </mask>
    <g mask="url(#mask0_1_8344)">
      <path fill-rule="evenodd" clip-rule="evenodd" d="M9.67662 2.87321C5.94011 2.87321 2.90023 5.84514 2.90023 9.49912C2.90023 13.1531 5.94011 16.1258 9.67662 16.1258C13.4123 16.1258 16.4522 13.1531 16.4522 9.49912C16.4522 5.84514 13.4123 2.87321 9.67662 2.87321ZM9.6766 17.3323C5.2599 17.3323 1.6665 13.8183 1.6665 9.49912C1.6665 5.17997 5.2599 1.66675 9.6766 1.66675C14.0933 1.66675 17.6859 5.17997 17.6859 9.49912C17.6859 13.8183 14.0933 17.3323 9.6766 17.3323Z" fill="#A9A9C2"></path>
      <path d="M9.67662 2.37321C5.67463 2.37321 2.40023 5.55845 2.40023 9.49912H3.40023C3.40023 6.13183 6.20558 3.37321 9.67662 3.37321V2.37321ZM2.40023 9.49912C2.40023 13.4397 5.67455 16.6258 9.67662 16.6258V15.6258C6.20566 15.6258 3.40023 12.8665 3.40023 9.49912H2.40023ZM9.67662 16.6258C13.6779 16.6258 16.9522 13.4397 16.9522 9.49912H15.9522C15.9522 12.8665 13.1467 15.6258 9.67662 15.6258V16.6258ZM16.9522 9.49912C16.9522 5.55849 13.6778 2.37321 9.67662 2.37321V3.37321C13.1468 3.37321 15.9522 6.13179 15.9522 9.49912H16.9522ZM9.6766 16.8323C5.52546 16.8323 2.1665 13.5316 2.1665 9.49912H1.1665C1.1665 14.1049 4.99435 17.8323 9.6766 17.8323V16.8323ZM2.1665 9.49912C2.1665 5.46665 5.52539 2.16675 9.6766 2.16675V1.16675C4.99442 1.16675 1.1665 4.8933 1.1665 9.49912H2.1665ZM9.6766 2.16675C13.8277 2.16675 17.1859 5.46658 17.1859 9.49912H18.1859C18.1859 4.89336 14.3589 1.16675 9.6766 1.16675V2.16675ZM17.1859 9.49912C17.1859 13.5317 13.8277 16.8323 9.6766 16.8323V17.8323C14.3589 17.8323 18.1859 14.1048 18.1859 9.49912H17.1859Z" fill="#A9A9C2"></path>
    </g>
    <mask id="mask1_1_8344" maskUnits="userSpaceOnUse" x="13" y="13" width="6" height="6">
      <path fill-rule="evenodd" clip-rule="evenodd" d="M14.2012 14.3H18.3333V18.3335H14.2012V14.3Z" fill="white" stroke="white"></path>
    </mask>
    <g mask="url(#mask1_1_8344)">
      <path fill-rule="evenodd" clip-rule="evenodd" d="M17.7166 18.3335C17.5596 18.3335 17.4016 18.2747 17.2807 18.1573L14.3823 15.331C14.1413 15.0953 14.1405 14.7133 14.3815 14.4776C14.6217 14.2403 15.0123 14.2419 15.2541 14.476L18.1526 17.3031C18.3935 17.5388 18.3944 17.92 18.1534 18.1557C18.0333 18.2747 17.8746 18.3335 17.7166 18.3335Z" fill="#A9A9C2"></path>
      <path d="M17.7166 18.3335C17.5595 18.3335 17.4016 18.2747 17.2807 18.1573L14.3823 15.331C14.1413 15.0953 14.1405 14.7133 14.3815 14.4776C14.6217 14.2403 15.0123 14.2419 15.2541 14.476L18.1526 17.3031C18.3935 17.5388 18.3944 17.92 18.1534 18.1557C18.0333 18.2747 17.8746 18.3335 17.7166 18.3335" stroke="#A9A9C2"></path>
    </g>
  </symbol>

  <!-- location icon -->

  <symbol fill="inherit" xmlns="http://www.w3.org/2000/svg" viewBox="0 0 42 56" id="location">
    <path d="M21 0C9.422 0 0 9.48733 0 21.1517C0 37.7253 19.026 54.838 19.8357 55.5567C20.1693 55.853 20.5847 56 21 56C21.4153 56 21.8307 55.853 22.1643 55.559C22.974 54.838 42 37.7253 42 21.1517C42 9.48733 32.578 0 21 0ZM21 32.6667C14.567 32.6667 9.33333 27.433 9.33333 21C9.33333 14.567 14.567 9.33333 21 9.33333C27.433 9.33333 32.6667 14.567 32.6667 21C32.6667 27.433 27.433 32.6667 21 32.6667Z" fill="inherit"></path>
  </symbol>

  <symbol fill="none" xmlns="http://www.w3.org/2000/svg" viewBox="0 0 32 32" id="minus">
    <path d="M24.6663 16H15.9997L7.33301 16" stroke="#21E786" stroke-width="3" stroke-miterlimit="10" stroke-linecap="square" stroke-linejoin="round"></path>
  </symbol>

  <!-- Person icon -->
  <symbol fill="inherit" xmlns="http://www.w3.org/2000/svg" viewBox="0 0 22 24" id="person-icon">
    <path d="M11 0C7.51067 0 4.67188 2.8388 4.67188 6.32812C4.67188 9.81745 7.51067 12.6562 11 12.6562C14.4893 12.6562 17.3281 9.81745 17.3281 6.32812C17.3281 2.8388 14.4893 0 11 0Z" fill="inherit"></path>
    <path d="M18.8734 16.7904C17.1409 15.0313 14.8442 14.0625 12.4062 14.0625H9.59375C7.15588 14.0625 4.85909 15.0313 3.12659 16.7904C1.40258 18.5409 0.453125 20.8515 0.453125 23.2969C0.453125 23.6852 0.767937 24 1.15625 24H20.8438C21.2321 24 21.5469 23.6852 21.5469 23.2969C21.5469 20.8515 20.5974 18.5409 18.8734 16.7904Z" fill="inherit"></path>
  </symbol>

  <symbol fill="none" xmlns="http://www.w3.org/2000/svg" viewBox="0 0 24 24" id="phase-icon">
    <g clip-path="url(#clip0_1_7950)">
      <g clip-path="url(#clip1_1_7950)">
        <path d="M23.7596 13.2116V17.1713C23.7596 17.217 23.7587 17.2626 23.756 17.3083C23.7551 17.3172 23.7551 17.3271 23.7542 17.336C23.7524 17.3628 23.7506 17.3897 23.748 17.4174C23.7453 17.4443 23.7426 17.4711 23.739 17.498C23.7363 17.5239 23.7318 17.5499 23.7283 17.5749C23.722 17.6134 23.7157 17.651 23.7077 17.6895C23.7032 17.7136 23.6978 17.7369 23.6925 17.7611C23.6871 17.7816 23.6817 17.8031 23.6764 17.8246C23.6719 17.8443 23.6665 17.8631 23.6603 17.8828C23.6361 17.9696 23.6066 18.0555 23.5726 18.1396C23.5654 18.1575 23.5582 18.1763 23.5502 18.1942C23.5296 18.2434 23.5072 18.2917 23.4831 18.3391C23.4714 18.3633 23.4589 18.3866 23.4464 18.4098L23.4455 18.4089L18.9659 15.9159L11.9502 12.0107L17.2263 9.58208L23.6647 13.1597L23.7596 13.2116Z" fill="url(#paint0_linear_1_7950)"></path>
        <path d="M23.6783 5.82237L22.3127 6.87472L21.1038 8.77539L9.60938 2.37718L13.9772 -0.690376L16.617 0.834456H16.6179L21.4555 3.6273L22.4568 4.20537C23.0734 4.56152 23.5083 5.14855 23.6783 5.82237Z" fill="url(#paint1_linear_1_7950)"></path>
        <path d="M16.6183 0.834058L0 10.3544V6.45822C0 5.52847 0.495749 4.6694 1.30022 4.20498L10.579 -1.15162C11.3834 -1.61605 12.3749 -1.61605 13.1803 -1.15162L16.6183 0.834058Z" fill="#21E786"></path>
        <path d="M23.7584 6.45823V7.81036L2.29172 19.9974L1.30022 19.4247C0.495749 18.9594 0 18.1012 0 17.1714V15.822L21.4568 3.62691L22.4582 4.20499C23.2626 4.66942 23.7584 5.52848 23.7584 6.45823Z" fill="#21E786"></path>
        <path d="M23.7592 13.1045V17.1717C23.7592 17.2173 23.7583 17.2629 23.7556 17.3086C23.7548 17.3175 23.7548 17.3274 23.7539 17.3363C23.7521 17.3632 23.7503 17.39 23.7476 17.4177C23.7449 17.4446 23.7422 17.4714 23.7386 17.4983C23.736 17.5242 23.7315 17.5502 23.7279 17.5752C23.7216 17.6137 23.7154 17.6513 23.7073 17.6898C23.7029 17.7139 23.6975 17.7372 23.6921 17.7614C23.6867 17.782 23.6814 17.8034 23.676 17.8249C23.6715 17.8446 23.6662 17.8634 23.6599 17.8831C23.6357 17.9699 23.6062 18.0558 23.5722 18.1399C23.565 18.1578 23.5579 18.1766 23.5498 18.1945C23.5293 18.2437 23.5069 18.292 23.4827 18.3394C23.4711 18.3636 23.4586 18.3869 23.446 18.4101C23.4317 18.4361 23.4174 18.462 23.4022 18.4871C23.3879 18.513 23.3718 18.5381 23.3565 18.5632C23.3243 18.6124 23.2912 18.6616 23.2563 18.709C23.2205 18.7573 23.1838 18.8039 23.1463 18.8486C23.1266 18.8719 23.1069 18.8943 23.0872 18.9157C23.0675 18.9381 23.0469 18.9596 23.0263 18.9811C22.9852 19.024 22.9422 19.0661 22.8975 19.1054C22.8805 19.1215 22.8626 19.1368 22.8447 19.152C22.834 19.1609 22.8232 19.1699 22.8125 19.1788C22.791 19.1976 22.7686 19.2155 22.7454 19.2325C22.723 19.2504 22.7006 19.2674 22.6765 19.2835C22.6317 19.3166 22.5852 19.3479 22.5378 19.3775C22.5118 19.3936 22.4859 19.4097 22.459 19.4249L13.1812 24.7815C12.3758 25.2459 11.3843 25.2459 10.5798 24.7815L7.18652 22.8227L18.9655 15.9162L23.6644 13.16L23.7592 13.1045Z" fill="#21E786"></path>
        <path d="M4.66577 2.26225V21.3674L2.29172 19.9974L1.30022 19.4247C0.495749 18.9593 0 18.1012 0 17.1714V6.45823C0 5.52847 0.495749 4.66941 1.30022 4.20498L4.66577 2.26225Z" fill="#21E786"></path>
      </g>
    </g>
    <defs>
      <linearGradient id="paint0_linear_1_7950" x1="23.0437" y1="16.1288" x2="13.5135" y2="9.59639" gradientUnits="userSpaceOnUse">
        <stop stop-color="#00FFA3"></stop>
        <stop offset="1" stop-color="#00FFA3" stop-opacity="0"></stop>
      </linearGradient>
      <linearGradient id="paint1_linear_1_7950" x1="21.4752" y1="7.09127" x2="12.8398" y2="1.49843" gradientUnits="userSpaceOnUse">
        <stop stop-color="#00FFA3"></stop>
        <stop offset="1" stop-color="#00FFA3" stop-opacity="0"></stop>
      </linearGradient>
      <clipPath id="clip0_1_7950">
        <rect width="24" height="24" fill="white"></rect>
      </clipPath>
      <clipPath id="clip1_1_7950">
        <rect width="24" height="26.6667" fill="white" transform="translate(0 -1.49995)"></rect>
      </clipPath>
    </defs>
  </symbol>

  <!-- Phone icon -->

  <symbol fill="inherit" xmlns="http://www.w3.org/2000/svg" viewBox="0 0 56 56" id="phone">
    <path d="M51.5066 36.7576C48.078 36.7576 44.7116 36.2214 41.5215 35.1671C39.9583 34.634 38.0367 35.1231 37.0826 36.1029L30.786 40.8562C23.4837 36.9583 18.9856 32.4616 15.1409 25.2141L19.7543 19.0816C20.9529 17.8846 21.3828 16.136 20.8677 14.4954C19.809 11.2885 19.2711 7.92371 19.2711 4.49371C19.2713 2.01585 17.2554 0 14.7777 0H4.49356C2.01585 0 0 2.01585 0 4.49356C0 32.8946 23.1055 56 51.5066 56C53.9843 56 56.0002 53.9841 56.0002 51.5064V41.251C56 38.7734 53.9841 36.7576 51.5066 36.7576Z" fill="inherit"></path>
  </symbol>

  <!-- <symbol fill="none" xmlns="http://www.w3.org/2000/svg" viewBox="0 0 32 32" id="plus">
    <g opacity="0.4">
      <path d="M24.6663 16H15.9997L7.33301 16" stroke="#21E786" stroke-width="3" stroke-miterlimit="10" stroke-linecap="square" stroke-linejoin="round"></path>
      <path d="M15.999 24.6673L15.999 16.0007L15.999 7.33398" stroke="#21E786" stroke-width="3" stroke-miterlimit="10" stroke-linecap="square" stroke-linejoin="round"></path>
    </g>
  </symbol> -->

  <symbol fill="inherit" xmlns="http://www.w3.org/2000/svg" viewBox="0 0 32 32" id="plus">
    <g >
      <path d="M24.6663 16H15.9997L7.33301 16" stroke="inherit" stroke-width="inherit" stroke-miterlimit="10" stroke-linecap="square" stroke-linejoin="round"></path>
      <path d="M15.999 24.6673L15.999 16.0007L15.999 7.33398" stroke="inherit" stroke-width="inherit" stroke-miterlimit="10" stroke-linecap="square" stroke-linejoin="round"></path>
    </g>
  </symbol>

  <symbol fill="inherit" xmlns="http://www.w3.org/2000/svg" viewBox="0 0 23 24" id="switch" width="24" height="24">
    <path d="M11.3495 5.62573C10.0884 5.6255 8.85553 5.99925 7.80681 6.69973C6.7581 7.40021 5.94066 8.39594 5.45788 9.56101C4.9751 10.7261 4.84865 12.0082 5.09454 13.2451C5.34042 14.482 5.94759 15.6183 6.83926 16.5101C7.73093 17.402 8.86705 18.0094 10.1039 18.2555C11.3408 18.5016 12.6229 18.3754 13.7881 17.8929C14.9532 17.4103 15.9492 16.5931 16.6498 15.5445C17.3505 14.496 17.7245 13.2632 17.7245 12.002C17.7228 10.3117 17.0506 8.69105 15.8555 7.49568C14.6604 6.30031 13.0399 5.62782 11.3495 5.62573Z" fill="inherit"></path>
    <path d="M21.4848 10.877H19.986C19.6876 10.877 19.4014 10.9955 19.1904 11.2065C18.9794 11.4175 18.8608 11.7037 18.8608 12.0021C18.8608 12.3006 18.9794 12.5868 19.1904 12.7978C19.4014 13.0088 19.6876 13.1273 19.986 13.1273H21.4848C21.7832 13.1273 22.0694 13.0088 22.2804 12.7978C22.4914 12.5868 22.61 12.3006 22.61 12.0021C22.61 11.7037 22.4914 11.4175 22.2804 11.2065C22.0694 10.9955 21.7832 10.877 21.4848 10.877Z" fill="inherit"></path>
    <path d="M11.3495 19.4998C11.0513 19.5002 10.7655 19.6189 10.5547 19.8299C10.3439 20.0408 10.2254 20.3267 10.2251 20.6249V22.1251C10.2251 22.4233 10.3436 22.7093 10.5544 22.9202C10.7653 23.131 11.0513 23.2495 11.3495 23.2495C11.6477 23.2495 11.9336 23.131 12.1445 22.9202C12.3554 22.7093 12.4738 22.4233 12.4738 22.1251V20.6249C12.4736 20.3267 12.3551 20.0408 12.1443 19.8299C11.9336 19.6189 11.6477 19.5002 11.3495 19.4998Z" fill="inherit"></path>
    <path d="M3.85657 12.0021C3.85631 11.7039 3.73778 11.418 3.52699 11.2071C3.31619 10.9961 3.03033 10.8774 2.73212 10.877H1.23359C0.935168 10.877 0.648972 10.9955 0.437958 11.2065C0.226945 11.4175 0.108398 11.7037 0.108398 12.0021C0.108398 12.3006 0.226945 12.5868 0.437958 12.7978C0.648972 13.0088 0.935168 13.1273 1.23359 13.1273H2.73212C3.03033 13.1269 3.31619 13.0082 3.52699 12.7972C3.73779 12.5863 3.85631 12.3003 3.85657 12.0021Z" fill="inherit"></path>
    <path d="M11.3499 4.50045C11.6481 4.5 11.9339 4.38129 12.1447 4.17036C12.3555 3.95942 12.474 3.67349 12.4743 3.37528V1.87509C12.4743 1.57689 12.3558 1.29091 12.145 1.08005C11.9341 0.869191 11.6481 0.750732 11.3499 0.750732C11.0517 0.750732 10.7658 0.869191 10.5549 1.08005C10.344 1.29091 10.2256 1.57689 10.2256 1.87509V3.37528C10.2258 3.67347 10.3443 3.9594 10.5551 4.17034C10.7658 4.38128 11.0517 4.5 11.3499 4.50045Z" fill="inherit"></path>
    <path d="M18.2447 6.69707L19.3055 5.6363C19.4102 5.53197 19.4934 5.408 19.5501 5.2715C19.6069 5.135 19.6362 4.98864 19.6364 4.8408C19.6365 4.69296 19.6075 4.54655 19.551 4.40993C19.4945 4.27332 19.4116 4.14919 19.3071 4.04465C19.2025 3.94011 19.0784 3.85722 18.9418 3.80071C18.8052 3.7442 18.6587 3.71519 18.5109 3.71533C18.3631 3.71548 18.2167 3.74478 18.0802 3.80155C17.9437 3.85833 17.8197 3.94147 17.7154 4.04621L16.6546 5.10701C16.5499 5.21134 16.4667 5.33531 16.41 5.47181C16.3532 5.60831 16.3239 5.75467 16.3237 5.90251C16.3236 6.05035 16.3526 6.19677 16.4091 6.33338C16.4656 6.46999 16.5485 6.59412 16.6531 6.69865C16.7576 6.80319 16.8817 6.88609 17.0183 6.94259C17.1549 6.9991 17.3014 7.02811 17.4492 7.02797C17.597 7.02782 17.7434 6.99852 17.8799 6.94174C18.0164 6.88496 18.1404 6.80182 18.2447 6.69707Z" fill="inherit"></path>
    <path d="M18.2445 17.3073C18.1402 17.2026 18.0162 17.1195 17.8797 17.0627C17.7432 17.006 17.5969 16.9767 17.4491 16.9766C17.3013 16.9764 17.1549 17.0055 17.0183 17.062C16.8817 17.1185 16.7576 17.2014 16.653 17.3059C16.5485 17.4104 16.4656 17.5345 16.4091 17.6711C16.3526 17.8077 16.3236 17.9541 16.3237 18.1019C16.3239 18.2497 16.3531 18.3961 16.4099 18.5326C16.4666 18.6691 16.5497 18.793 16.6544 18.8974L17.7152 19.9581C17.8196 20.0628 17.9435 20.146 18.08 20.2027C18.2165 20.2594 18.3629 20.2887 18.5107 20.2889C18.6585 20.289 18.8049 20.26 18.9415 20.2035C19.0781 20.1469 19.2022 20.0641 19.3067 19.9595C19.4112 19.855 19.4941 19.7309 19.5506 19.5943C19.6071 19.4577 19.6362 19.3113 19.636 19.1635C19.6359 19.0157 19.6066 18.8693 19.5499 18.7329C19.4931 18.5964 19.41 18.4724 19.3053 18.3681L18.2445 17.3073Z" fill="inherit"></path>
    <path d="M4.45432 17.307L3.39354 18.3678C3.28876 18.4722 3.20559 18.5961 3.14879 18.7326C3.09198 18.8691 3.06266 19.0155 3.0625 19.1634C3.06234 19.3112 3.09134 19.4577 3.14785 19.5943C3.20436 19.7309 3.28726 19.8551 3.39181 19.9596C3.49636 20.0642 3.62051 20.1471 3.75714 20.2036C3.89377 20.2601 4.04021 20.2891 4.18807 20.2889C4.33592 20.2888 4.48229 20.2595 4.6188 20.2026C4.75531 20.1458 4.87928 20.0627 4.9836 19.9579L6.0444 18.8971C6.14911 18.7928 6.23221 18.6688 6.28896 18.5323C6.34571 18.3958 6.37499 18.2495 6.37512 18.1017C6.37525 17.9538 6.34623 17.8075 6.28972 17.6709C6.23321 17.5343 6.15032 17.4102 6.0458 17.3056C5.94127 17.2011 5.81716 17.1182 5.68057 17.0617C5.54398 17.0052 5.39759 16.9762 5.24977 16.9763C5.10195 16.9764 4.95561 17.0057 4.81911 17.0625C4.68262 17.1192 4.55866 17.2023 4.45432 17.307Z" fill="inherit"></path>
    <path d="M4.45435 6.69703C4.55872 6.80158 4.68268 6.88454 4.81913 6.94116C4.95558 6.99778 5.10185 7.02696 5.24959 7.02702C5.39732 7.02708 5.54362 6.99803 5.68012 6.94152C5.81662 6.88502 5.94064 6.80216 6.04511 6.6977C6.14957 6.59324 6.23242 6.46921 6.28893 6.33271C6.34544 6.19621 6.37449 6.04991 6.37442 5.90218C6.37436 5.75444 6.34519 5.60817 6.28856 5.47172C6.23194 5.33527 6.14898 5.21131 6.04443 5.10694L4.98363 4.04614C4.87933 3.94125 4.75536 3.85798 4.61882 3.80109C4.48228 3.7442 4.33586 3.71481 4.18794 3.7146C4.04002 3.71439 3.89352 3.74338 3.75682 3.79989C3.62012 3.8564 3.49592 3.93933 3.39133 4.04392C3.28673 4.14852 3.20381 4.27272 3.1473 4.40942C3.09079 4.54611 3.06181 4.69262 3.06201 4.84054C3.06222 4.98845 3.09161 5.13488 3.1485 5.27142C3.2054 5.40795 3.28867 5.53193 3.39356 5.63623L4.45435 6.69703Z" fill="inherit"></path>
  </symbol>

  <symbol fill="none" xmlns="http://www.w3.org/2000/svg" viewBox="0 0 20 20" id="team-facebook">
    <g clip-path="url(#clip0_1_7798)">
      <path d="M19.3309 9.85489C19.3309 15.0883 15.0883 19.3309 9.85489 19.3309C4.62145 19.3309 0.378906 15.0883 0.378906 9.85489C0.378906 4.62145 4.62145 0.378906 9.85489 0.378906C15.0883 0.378906 19.3309 4.62145 19.3309 9.85489Z" fill="#C2C3C5"></path>
      <path d="M8.33873 12.6983V19.142C8.33873 19.2466 8.42358 19.3315 8.52825 19.3315H11.1815C11.2862 19.3315 11.371 19.2466 11.371 19.142V12.6983C11.371 12.5936 11.4559 12.5088 11.5606 12.5088H13.4558C13.5604 12.5088 13.6453 12.4239 13.6453 12.3193V10.045C13.6453 9.94036 13.5604 9.85551 13.4558 9.85551H11.5606C11.4559 9.85551 11.371 9.77079 11.371 9.66612V7.96031C11.371 7.20224 12.3186 6.8232 12.6977 6.8232H13.8348C13.9395 6.8232 14.0243 6.73835 14.0243 6.63368V4.35944C14.0243 4.25477 13.9395 4.16992 13.8348 4.16992H11.371C9.55166 4.16992 8.33873 6.06512 8.33873 7.20224V9.66599C8.33873 9.77066 8.25388 9.85551 8.14921 9.85551H6.25401C6.14935 9.85551 6.0645 9.94036 6.0645 10.045V12.3193C6.0645 12.4239 6.14935 12.5088 6.25401 12.5088H8.14921C8.25388 12.5088 8.33873 12.5936 8.33873 12.6983Z" fill="#141B22"></path>
    </g>
    <defs>
      <clipPath id="clip0_1_7798">
        <rect width="20" height="20" fill="white"></rect>
      </clipPath>
    </defs>
  </symbol>

  <symbol fill="none" xmlns="http://www.w3.org/2000/svg" viewBox="0 0 20 20" id="team-instagram">
    <g clip-path="url(#clip0_1_7801)">
      <path fill-rule="evenodd" clip-rule="evenodd" d="M5.87727 0.06C6.94364 0.0109091 7.28364 0 10 0C12.7164 0 13.0564 0.0118182 14.1218 0.06C15.1873 0.108182 15.9145 0.278182 16.5509 0.524545C17.2173 0.776364 17.8218 1.17 18.3218 1.67909C18.8309 2.17818 19.2236 2.78182 19.4745 3.44909C19.7218 4.08545 19.8909 4.81273 19.94 5.87636C19.9891 6.94455 20 7.28454 20 10C20 12.7164 19.9882 13.0564 19.94 14.1227C19.8918 15.1864 19.7218 15.9136 19.4745 16.55C19.2236 17.2174 18.8303 17.822 18.3218 18.3218C17.8218 18.8309 17.2173 19.2236 16.5509 19.4745C15.9145 19.7218 15.1873 19.8909 14.1236 19.94C13.0564 19.9891 12.7164 20 10 20C7.28364 20 6.94364 19.9882 5.87727 19.94C4.81364 19.8918 4.08636 19.7218 3.45 19.4745C2.78265 19.2236 2.17802 18.8302 1.67818 18.3218C1.16944 17.8224 0.775741 17.2181 0.524545 16.5509C0.278182 15.9145 0.109091 15.1873 0.06 14.1236C0.0109091 13.0555 0 12.7155 0 10C0 7.28364 0.0118182 6.94364 0.06 5.87818C0.108182 4.81273 0.278182 4.08545 0.524545 3.44909C0.776112 2.78189 1.17011 2.17756 1.67909 1.67818C2.17822 1.16955 2.78225 0.775858 3.44909 0.524545C4.08545 0.278182 4.81273 0.109091 5.87636 0.06H5.87727ZM14.0409 1.86C12.9864 1.81182 12.67 1.80182 10 1.80182C7.33 1.80182 7.01364 1.81182 5.95909 1.86C4.98364 1.90455 4.45455 2.06727 4.10182 2.20455C3.63545 2.38636 3.30182 2.60182 2.95182 2.95182C2.62004 3.27459 2.36471 3.66753 2.20455 4.10182C2.06727 4.45455 1.90455 4.98364 1.86 5.95909C1.81182 7.01364 1.80182 7.33 1.80182 10C1.80182 12.67 1.81182 12.9864 1.86 14.0409C1.90455 15.0164 2.06727 15.5455 2.20455 15.8982C2.36455 16.3318 2.62 16.7255 2.95182 17.0482C3.27455 17.38 3.66818 17.6355 4.10182 17.7955C4.45455 17.9327 4.98364 18.0955 5.95909 18.14C7.01364 18.1882 7.32909 18.1982 10 18.1982C12.6709 18.1982 12.9864 18.1882 14.0409 18.14C15.0164 18.0955 15.5455 17.9327 15.8982 17.7955C16.3645 17.6136 16.6982 17.3982 17.0482 17.0482C17.38 16.7255 17.6355 16.3318 17.7955 15.8982C17.9327 15.5455 18.0955 15.0164 18.14 14.0409C18.1882 12.9864 18.1982 12.67 18.1982 10C18.1982 7.33 18.1882 7.01364 18.14 5.95909C18.0955 4.98364 17.9327 4.45455 17.7955 4.10182C17.6136 3.63545 17.3982 3.30182 17.0482 2.95182C16.7254 2.62006 16.3325 2.36474 15.8982 2.20455C15.5455 2.06727 15.0164 1.90455 14.0409 1.86ZM8.72273 13.0827C9.43605 13.3797 10.2303 13.4197 10.9699 13.1961C11.7095 12.9725 12.3485 12.499 12.7778 11.8566C13.2071 11.2142 13.4 10.4426 13.3237 9.67373C13.2473 8.90485 12.9064 8.18634 12.3591 7.64091C12.0102 7.29225 11.5884 7.02528 11.1239 6.85922C10.6595 6.69316 10.164 6.63215 9.67318 6.68056C9.18233 6.72897 8.70832 6.88562 8.28528 7.13921C7.86223 7.3928 7.50068 7.73704 7.22664 8.14714C6.9526 8.55723 6.7729 9.02299 6.70047 9.51087C6.62804 9.99876 6.66468 10.4966 6.80776 10.9687C6.95084 11.4407 7.1968 11.8751 7.52793 12.2407C7.85905 12.6062 8.26711 12.8938 8.72273 13.0827ZM6.36545 6.36545C6.84275 5.88816 7.40938 5.50955 8.033 5.25124C8.65661 4.99293 9.325 4.85998 10 4.85998C10.675 4.85998 11.3434 4.99293 11.967 5.25124C12.5906 5.50955 13.1572 5.88816 13.6345 6.36545C14.1118 6.84275 14.4905 7.40938 14.7488 8.033C15.0071 8.65661 15.14 9.325 15.14 10C15.14 10.675 15.0071 11.3434 14.7488 11.967C14.4905 12.5906 14.1118 13.1572 13.6345 13.6345C12.6706 14.5985 11.3632 15.14 10 15.14C8.63678 15.14 7.3294 14.5985 6.36545 13.6345C5.40151 12.6706 4.85998 11.3632 4.85998 10C4.85998 8.63678 5.40151 7.3294 6.36545 6.36545ZM16.28 5.62545C16.3983 5.51388 16.493 5.37971 16.5585 5.23089C16.624 5.08206 16.6589 4.92161 16.6613 4.75903C16.6637 4.59645 16.6334 4.43504 16.5723 4.28437C16.5111 4.1337 16.4204 3.99683 16.3054 3.88185C16.1904 3.76688 16.0536 3.67614 15.9029 3.61502C15.7522 3.55389 15.5908 3.52361 15.4282 3.52598C15.2657 3.52835 15.1052 3.56332 14.9564 3.62881C14.8076 3.69431 14.6734 3.789 14.5618 3.90727C14.3448 4.1373 14.226 4.44284 14.2306 4.75903C14.2352 5.07522 14.3629 5.37716 14.5865 5.60077C14.8101 5.82437 15.1121 5.95203 15.4282 5.95663C15.7444 5.96124 16.05 5.84244 16.28 5.62545Z" fill="#C2C3C5"></path>
    </g>
    <defs>
      <clipPath id="clip0_1_7801">
        <rect width="20" height="20" fill="white"></rect>
      </clipPath>
    </defs>
  </symbol>

  <symbol fill="none" xmlns="http://www.w3.org/2000/svg" viewBox="0 0 20 20" id="team-linkedin">
    <g clip-path="url(#clip0_1_7795)">
      <path d="M18.5195 0H1.47656C0.660156 0 0 0.644531 0 1.44141V18.5547C0 19.3516 0.660156 20 1.47656 20H18.5195C19.3359 20 20 19.3516 20 18.5586V1.44141C20 0.644531 19.3359 0 18.5195 0ZM5.93359 17.043H2.96484V7.49609H5.93359V17.043ZM4.44922 6.19531C3.49609 6.19531 2.72656 5.42578 2.72656 4.47656C2.72656 3.52734 3.49609 2.75781 4.44922 2.75781C5.39844 2.75781 6.16797 3.52734 6.16797 4.47656C6.16797 5.42188 5.39844 6.19531 4.44922 6.19531ZM17.043 17.043H14.0781V12.4023C14.0781 11.2969 14.0586 9.87109 12.5352 9.87109C10.9922 9.87109 10.7578 11.0781 10.7578 12.3242V17.043H7.79688V7.49609H10.6406V8.80078H10.6797C11.0742 8.05078 12.043 7.25781 13.4844 7.25781C16.4883 7.25781 17.043 9.23438 17.043 11.8047V17.043Z" fill="#C2C3C5"></path>
    </g>
    <defs>
      <clipPath id="clip0_1_7795">
        <rect width="20" height="20" fill="white"></rect>
      </clipPath>
    </defs>
  </symbol>

  <symbol fill="none" xmlns="http://www.w3.org/2000/svg" viewBox="0 0 20 20" id="team-telegram">
    <g clip-path="url(#clip0_1_7803)">
      <path d="M10 20C15.5228 20 20 15.5228 20 10C20 4.47715 15.5228 0 10 0C4.47715 0 0 4.47715 0 10C0 15.5228 4.47715 20 10 20Z" fill="#C2C3C5"></path>
      <path fill-rule="evenodd" clip-rule="evenodd" d="M4.52587 9.89397C7.44107 8.62386 9.38499 7.78653 10.3576 7.38197C13.1347 6.22688 13.7118 6.02623 14.0879 6.0196C14.1706 6.01814 14.3556 6.03865 14.4754 6.13587C14.5766 6.21796 14.6044 6.32885 14.6177 6.40668C14.6311 6.48451 14.6477 6.66181 14.6345 6.80034C14.484 8.38158 13.8328 12.2188 13.5015 13.9898C13.3613 14.7392 13.0853 14.9905 12.8181 15.0151C12.2374 15.0685 11.7964 14.6313 11.234 14.2626C10.3538 13.6856 9.85662 13.3265 9.0023 12.7635C8.01499 12.1129 8.65502 11.7553 9.21769 11.1709C9.36494 11.018 11.9236 8.69066 11.9731 8.47954C11.9793 8.45313 11.9851 8.35471 11.9266 8.30274C11.8681 8.25077 11.7818 8.26854 11.7195 8.28267C11.6313 8.30271 10.2253 9.23203 7.50149 11.0706C7.10239 11.3447 6.74091 11.4782 6.41703 11.4712C6.05998 11.4635 5.37315 11.2693 4.86257 11.1034C4.23632 10.8998 3.73859 10.7922 3.78193 10.4465C3.8045 10.2664 4.05248 10.0822 4.52587 9.89397Z" fill="#141B22"></path>
    </g>
    <defs>
      <clipPath id="clip0_1_7803">
        <rect width="20" height="20" fill="white"></rect>
      </clipPath>
    </defs>
  </symbol>

  <symbol fill="none" xmlns="http://www.w3.org/2000/svg" viewBox="0 0 22 19" id="wallet">
    <path d="M21.5 15V16.875C21.5 17.9093 20.6585 18.75 19.625 18.75H3.5C1.8455 18.75 0.5 17.4045 0.5 15.75C0.5 15.75 0.5 3.01125 0.5 3C0.5 1.3455 1.8455 0 3.5 0H17.375C17.9967 0 18.5 0.504 18.5 1.125C18.5 1.746 17.9967 2.25 17.375 2.25H3.5C3.08675 2.25 2.75 2.586 2.75 3C2.75 3.414 3.08675 3.75 3.5 3.75H19.625C20.6585 3.75 21.5 4.59075 21.5 5.625V7.5H17.75C15.6823 7.5 14 9.18225 14 11.25C14 13.3177 15.6823 15 17.75 15H21.5Z" fill="#141B22"></path>
    <path d="M21.5 9V13.5H17.75C16.5073 13.5 15.5 12.4927 15.5 11.25C15.5 10.0073 16.5073 9 17.75 9H21.5Z" fill="#141B22"></path>
  </symbol>

  
  <symbol fill="none" xmlns="http://www.w3.org/2000/svg" viewBox="0 0 10 9" id="checked">
    <path d="M8.67531 0.666748L3.58017 5.39354L1.4254 3.09404L0 4.42972L3.48114 8.1447L10 2.10268L8.67531 0.666748Z" fill="white"></path>
  </symbol>


</svg>


<!-- Code -->

<svg class="icon">
  <use xlink:href="#arrow-down"></use>
</svg>

<svg class="icon">
  <use xlink:href="#arrow-greater"></use>
</svg>

<svg class="icon">
  <use xlink:href="#arrow-less"></use>
</svg>

<svg class="icon">
  <use xlink:href="#bag-icon"></use>
</svg>

<svg class="icon">
  <use xlink:href="#readmore-arr"></use>
</svg>

<svg class="icon">
  <use xlink:href="#calendar"></use>
</svg>

<svg class="icon">
  <use xlink:href="#discord-btn"></use>
</svg>

<svg class="icon">
  <use xlink:href="#elipse-default"></use>
</svg>

<svg class="icon">
  <use xlink:href="#email"></use>
</svg>

<svg class="icon">
  <use xlink:href="#footer-discord"></use>
</svg>

<svg class="icon">
  <use xlink:href="#footer-facebook"></use>
</svg>

<svg class="icon">
  <use xlink:href="#footer-telegram"></use>
</svg>

<svg class="icon">
  <use xlink:href="#footer-tiktok"></use>
</svg>

<svg class="icon">
  <use xlink:href="#footer-twitter"></use>
</svg>

<svg class="icon">
  <use xlink:href="#footer-youtube"></use>
</svg>

<svg class="icon">
  <use xlink:href="#icon-search"></use>
</svg>

<svg class="icon">
  <use xlink:href="#location"></use>
</svg>

<svg class="icon">
  <use xlink:href="#star"></use>
</svg>

<svg class="icon">
  <use xlink:href="#minus"></use>
</svg>

<svg class="icon">
  <use xlink:href="#person-icon"></use>
</svg>

<svg class="icon">
  <use xlink:href="#phase-icon"></use>
</svg>

<svg class="icon">
  <use xlink:href="#phone"></use>
</svg>

<svg class="icon">
  <use xlink:href="#plus"></use>
</svg>

<svg class="icon">
  <use xlink:href="#switch"></use>
</svg>

<svg class="icon">
  <use xlink:href="#team-facebook"></use>
</svg>

<svg class="icon">
  <use xlink:href="#team-instagram"></use>
</svg>

<svg class="icon">
  <use xlink:href="#team-linkedin"></use>
</svg>

<svg class="icon">
  <use xlink:href="#team-telegram"></use>
</svg>

<svg class="icon">
  <use xlink:href="#wallet"></use>
</svg>

<svg class="icon">
  <use xlink:href="#checked"></use>
</svg>

